#N canvas 347 585 1553 807 10;
#X obj 574 324 vu 15 80 empty empty -1 -8 0 8 -66577 -1 1 0;
#X obj 406 373 dac~;
#X obj 410 301 *~ 1;
#N canvas 0 22 781 1019 meter 0;
#X floatatom 217 251 5 0 0 0 - - -, f 5;
#X obj 217 205 env~;
#X obj 217 228 - 101;
#X obj 124 360 noteout;
#X obj 130 303 t b f;
#X obj 133 234 dbtorms;
#X obj 131 270 * 500;
#X obj 130 336 pack 61 0;
#X obj 208 176 *~ 0.5;
#X obj 218 137 inlet~;
#X obj 237 296 outlet;
#X connect 0 0 10 0;
#X connect 1 0 2 0;
#X connect 1 0 5 0;
#X connect 2 0 0 0;
#X connect 4 0 7 0;
#X connect 4 1 7 1;
#X connect 5 0 6 0;
#X connect 6 0 4 0;
#X connect 7 0 3 0;
#X connect 8 0 1 0;
#X connect 9 0 8 0;
#X restore 576 287 pd meter;
#X obj 392 185 catch~ out;
#X floatatom 468 245 5 0 0 0 - - -, f 5;
#X obj 475 184 loadbang;
#X msg 471 213 1;
#X obj 380 80 reader-looper 1;
#X obj 497 79 reader-looper 2;
#X obj 382 117 reader-looper 3;
#X obj 496 117 reader-looper 4;
#X text 11 83 these load and loop four sounds named mysnd0001.wav \,
mysnd0002.wav \, etc. sounds can be any duration and must be in PD's
path settings;
#X obj 715 214 loadbang;
#X obj 714 246 del 4000;
#X msg 715 277 \; pd dsp 1;
#X msg 821 272 \; pd audio-dialog 3 0 0 0 2 0 0 0 3 0 0 0 2 0 0 0 44100
25 0 64;
#X obj 820 246 del 2000;
#X connect 2 0 1 0;
#X connect 2 0 3 0;
#X connect 2 0 1 1;
#X connect 3 0 0 0;
#X connect 4 0 2 0;
#X connect 5 0 2 1;
#X connect 6 0 7 0;
#X connect 7 0 5 0;
#X connect 13 0 14 0;
#X connect 13 0 17 0;
#X connect 14 0 15 0;
#X connect 17 0 16 0;
