#N canvas 1216 148 1267 1197 10;
#X floatatom 574 215 5 0 0 0 - - -, f 5;
#X obj 574 274 % 10;
#X obj 619 293 / 10;
#X obj 619 329 i;
#X msg 621 397 set \$1;
#X floatatom 579 395 5 0 0 0 - - -, f 5;
#X obj 574 244 t f f;
#X obj 579 427 makefilename;
#X obj 606 66 loadbang;
#X obj 574 187 f \$1;
#X obj 833 364 f \$1, f 5;
#X obj 603 91 t b b;
#X obj 443 641 table \$1-buff;
#X obj 833 419 makefilename %d-buff;
#X obj 621 356 makefilename mysnd00%d%%d.wav;
#X msg 589 526 read -resize \$1 \$2;
#X obj 587 560 soundfiler;
#X obj 596 484 list append;
#X obj 632 613 s \$1-dur;
#X obj 582 735 throw~ out;
#X obj 685 79 bng 15 250 50 0 empty empty empty 17 7 0 10 -262144 -1
-1;
#X obj 585 674 tabplay~ \$1-buff;
#X obj 585 611 bng 15 250 50 0 empty empty empty 17 7 0 10 -262144
-1 -1;
#X obj 699 671 bng 15 250 50 0 empty empty empty 17 7 0 10 -262144
-1 -1;
#X obj 699 701 spigot;
#X obj 742 603 loadbang;
#X obj 729 674 tgl 15 0 empty empty empty 17 7 0 10 -262144 -1 -1 0
1;
#X msg 737 641 1;
#X connect 0 0 6 0;
#X connect 1 0 5 0;
#X connect 2 0 3 0;
#X connect 3 0 14 0;
#X connect 4 0 7 0;
#X connect 5 0 7 0;
#X connect 6 0 1 0;
#X connect 6 1 2 0;
#X connect 7 0 17 0;
#X connect 8 0 11 0;
#X connect 9 0 0 0;
#X connect 10 0 13 0;
#X connect 11 0 9 0;
#X connect 11 1 10 0;
#X connect 13 0 17 1;
#X connect 14 0 4 0;
#X connect 15 0 16 0;
#X connect 16 0 18 0;
#X connect 16 0 22 0;
#X connect 17 0 15 0;
#X connect 20 0 11 0;
#X connect 21 0 19 0;
#X connect 21 1 23 0;
#X connect 22 0 21 0;
#X connect 23 0 24 0;
#X connect 24 0 22 0;
#X connect 25 0 27 0;
#X connect 26 0 24 1;
#X connect 27 0 26 0;
