#N canvas 1216 148 1058 936 10;
#X floatatom 574 215 5 0 0 0 - - -, f 5;
#X obj 574 274 % 10;
#X obj 619 293 / 10;
#X obj 619 329 i;
#X msg 621 397 set \$1;
#X floatatom 579 395 5 0 0 0 - - -, f 5;
#X obj 574 244 t f f;
#X obj 579 427 makefilename;
#X obj 739 71 loadbang;
#X obj 574 187 f \$1;
#X obj 639 627 print;
#X obj 821 435 f \$1;
#X obj 736 96 t b b;
#X obj 73 93 table \$1-buff;
#X obj 674 495 makefilename %d-buff;
#X obj 621 356 makefilename mysnd00%d%%d.wav;
#X msg 560 563 read -resize \$1 \$2;
#X obj 500 624 soundfiler;
#X floatatom 487 689 5 0 0 0 - - -, f 5;
#X obj 567 521 list append;
#X obj 210 609 phasor~;
#X obj 216 659 *~;
#X floatatom 110 271 5 0 0 0 - - -, f 5;
#X obj 186 374 * 1;
#X obj 111 307 / 100;
#X obj 139 337 t b f;
#X obj 100 212 loadbang;
#X msg 109 244 100;
#X obj 210 319 print;
#X obj 188 286 expr 1000/$f1;
#X obj 547 663 s \$1-dur;
#X obj 177 220 r \$1-dur;
#X obj 299 534 r \$1-dur;
#X obj 283 775 throw~ out;
#X obj 232 479 r \$1-dur;
#X obj 233 514 bng 15 250 50 0 empty empty empty 17 7 0 10 -262144
-1 -1;
#X msg 237 552 0;
#X obj 285 733 tabread4~ \$1-buff;
#X obj 77 652 snapshot~;
#X floatatom 56 701 5 0 0 0 - - -, f 5;
#X obj 74 568 metro 33;
#X obj 74 511 tgl 15 0 empty empty empty 17 7 0 10 -262144 -1 -1 1
1;
#X obj 145 714 snapshot~;
#X floatatom 72 780 5 0 0 0 - - -, f 5;
#X obj 162 827 print;
#X obj 528 716 print;
#X obj 818 84 bng 15 250 50 0 empty empty empty 17 7 0 10 -262144 -1
-1;
#X obj 296 618 expr $f1 * 44.1;
#X connect 0 0 6 0;
#X connect 1 0 5 0;
#X connect 2 0 3 0;
#X connect 3 0 15 0;
#X connect 4 0 7 0;
#X connect 5 0 7 0;
#X connect 6 0 1 0;
#X connect 6 1 2 0;
#X connect 7 0 19 0;
#X connect 8 0 12 0;
#X connect 9 0 0 0;
#X connect 11 0 14 0;
#X connect 12 0 9 0;
#X connect 12 1 11 0;
#X connect 14 0 19 1;
#X connect 15 0 4 0;
#X connect 16 0 10 0;
#X connect 16 0 17 0;
#X connect 17 0 18 0;
#X connect 17 0 30 0;
#X connect 17 0 45 0;
#X connect 19 0 16 0;
#X connect 20 0 21 0;
#X connect 20 0 38 0;
#X connect 21 0 37 0;
#X connect 21 0 42 0;
#X connect 22 0 24 0;
#X connect 23 0 20 0;
#X connect 24 0 25 0;
#X connect 25 0 23 0;
#X connect 25 1 23 1;
#X connect 26 0 27 0;
#X connect 27 0 22 0;
#X connect 29 0 23 0;
#X connect 29 0 28 0;
#X connect 31 0 29 0;
#X connect 32 0 47 0;
#X connect 34 0 35 0;
#X connect 35 0 36 0;
#X connect 36 0 20 1;
#X connect 37 0 33 0;
#X connect 38 0 39 0;
#X connect 40 0 38 0;
#X connect 40 0 42 0;
#X connect 41 0 40 0;
#X connect 42 0 43 0;
#X connect 42 0 44 0;
#X connect 46 0 12 0;
#X connect 47 0 21 1;
