#N canvas 420 126 1009 580 10;
#X obj 110 171 dac~;
#X obj 211 115 loadbang;
#X obj 210 147 del 4000;
#X msg 211 178 \; pd dsp 1;
#X msg 317 173 \; pd audio-dialog 3 0 0 0 2 0 0 0 3 0 0 0 2 0 0 0 44100
25 0 64;
#X obj 316 147 del 2000;
#X obj 103 63 noise~;
#X obj 118 110 *~;
#X obj 174 67 osc~ 0.25;
#X connect 1 0 2 0;
#X connect 1 0 5 0;
#X connect 2 0 3 0;
#X connect 5 0 4 0;
#X connect 6 0 7 0;
#X connect 7 0 0 0;
#X connect 7 0 0 1;
#X connect 8 0 7 1;
